<svg viewBox="0 0 200 72.4122" fill="none" xmlns="http://www.w3.org/2000/svg" xmlns:xlink="http://www.w3.org/1999/xlink" x="0" y="0"><g id="Group 1">
<g id="Group">
<g id="Group_2">
<path id="Vector_3" d="M83.495,12.4599v-3.6725h-10.837v3.6725z" fill="white"/>
<path id="Vector_4" d="M79.876,0h-3.63v44.2171h3.63z" fill="white"/>
</g>
<g id="Group_3">
<path id="Vector_5" d="M39.548,24.6884v3.6725h32.311l-0.094,-3.6725z" fill="white"/>
<path id="Vector_6" d="M67.165,33.5556c-2.402,4.203 -6.89,7.0329 -12.033,7.0329c-7.675,0 -13.898,-6.2967 -13.898,-14.0643c0,-7.7677 6.223,-14.0643 13.898,-14.0643c7.675,0 13.898,6.2966 13.898,14.0643c0,0.6227 -0.045,1.2355 -0.122,1.8369h3.657c0.062,-0.6043 0.094,-1.2156 0.094,-1.8369c0,-9.7961 -7.847,-17.7368 -17.527,-17.7368c-9.68,0 -17.527,7.9407 -17.527,17.7368c0,9.796 7.847,17.7367 17.527,17.7367c6.487,0 12.147,-3.5689 15.177,-8.8698l-3.142,-1.8369z" fill="white"/>
</g>
<path id="Vector_7" d="M118.54,26.5242c0,9.796 -7.848,17.7367 -17.527,17.7367c-9.68,0 -17.527,-7.9407 -17.527,-17.7367c0,-9.7961 7.847,-17.7368 17.527,-17.7368c9.679,0 17.527,7.9407 17.527,17.7368zM101.013,12.4599c-7.676,0 -13.898,6.2966 -13.898,14.0643c0,7.7676 6.222,14.0643 13.898,14.0643c7.675,0 13.897,-6.2967 13.897,-14.0643c0,-7.7677 -6.222,-14.0643 -13.897,-14.0643z" fill="white"/>
<g id="Group_4">
<path id="Vector_8" d="M138.618,44.2609c-9.68,0 -17.527,-7.9407 -17.527,-17.7367c0,-9.7961 7.847,-17.7368 17.527,-17.7368c9.679,0 17.527,7.9407 17.527,17.7368c0,9.796 -7.848,17.7367 -17.527,17.7367zM152.515,26.5242c0,-7.7677 -6.222,-14.0643 -13.897,-14.0643c-7.676,0 -13.898,6.2966 -13.898,14.0643c0,7.7676 6.222,14.0643 13.898,14.0643c7.675,0 13.897,-6.2967 13.897,-14.0643z" fill="white"/>
<path id="Vector_9" d="M124.72,10.6243h-3.629v42.4241h3.629z" fill="white"/>
</g>
<g id="Group_5">
<path id="Vector_10" d="M164.946,26.5242c0,-9.7961 7.847,-17.7368 17.527,-17.7368c9.679,0 17.527,7.9407 17.527,17.7368c0,9.796 -7.848,17.7367 -17.527,17.7367c-9.68,0 -17.527,-7.9407 -17.527,-17.7367zM182.473,40.5885c7.675,0 13.898,-6.2967 13.898,-14.0643c0,-7.7677 -6.223,-14.0643 -13.898,-14.0643c-7.676,0 -13.898,6.2966 -13.898,14.0643c0,7.7676 6.222,14.0643 13.898,14.0643z" fill="white"/>
<path id="Vector_11" d="M196.369,44.2168h3.63v-33.5926h-3.63z" fill="white"/>
</g>
<path id="Vector_12" d="M162.371,10.6245l5.242,-5.3052l-5.242,-5.3051z" fill="currentColor"/>
<path id="Vector_13" d="M158.743,44.2169h3.629v-33.5926l-3.629,3.6413z" fill="white"/>
<g id="Group_6">
<path id="Vector_14" d="M35.054,26.5242c0,9.796 -7.847,17.7367 -17.527,17.7367c-9.68,0 -17.527,-7.9407 -17.527,-17.7367c0,-9.7961 7.847,-17.7368 17.527,-17.7368c9.68,0 17.527,7.9407 17.527,17.7368zM17.527,12.4599c-7.675,0 -13.898,6.2966 -13.898,14.0643c0,7.7676 6.223,14.0643 13.898,14.0643c7.675,0 13.898,-6.2967 13.898,-14.0643c0,-7.7677 -6.223,-14.0643 -13.898,-14.0643z" fill="white"/>
<path id="Vector_15" d="M3.629,0h-3.629v44.2171h3.629z" fill="white"/>
</g>
</g>
<g id="Group_7">
<path id="Vector_16" d="M139.817,66.4504c-1.234,0 -2.342,-0.288 -3.324,-0.8667c-0.982,-0.5773 -1.754,-1.3717 -2.315,-2.3845c-0.56,-1.0128 -0.842,-2.1618 -0.842,-3.4498c0,-1.2879 0.276,-2.4086 0.828,-3.4214c0.551,-1.0128 1.319,-1.8128 2.301,-2.3986c0.982,-0.5858 2.081,-0.8809 3.297,-0.8809c1.009,0 1.921,0.1943 2.735,0.5816c0.814,0.3886 1.483,0.9319 2.006,1.6327c0.523,0.7007 0.87,1.5334 1.037,2.4979v4.0044c-0.167,0.9461 -0.518,1.7745 -1.051,2.4838c-0.533,0.7106 -1.197,1.2539 -1.992,1.6327c-0.796,0.3787 -1.688,0.5674 -2.68,0.5674zM139.536,72.4123c-1.291,0 -2.446,-0.2412 -3.465,-0.7234c-1.02,-0.4823 -1.848,-1.1788 -2.483,-2.0866l0.926,-0.9093c0.505,0.7192 1.187,1.2922 2.048,1.7178c0.86,0.4255 1.861,0.6383 3.002,0.6383c1.646,0 2.956,-0.4539 3.929,-1.3632c0.972,-0.9092 1.459,-2.1291 1.459,-3.6625v-3.3221l0.337,-3.0668l-0.337,-2.9816v-3.3221h1.43v12.6912c0,1.2866 -0.285,2.4086 -0.856,3.3646c-0.57,0.9561 -1.37,1.6994 -2.398,2.2285c-1.029,0.5305 -2.227,0.7943 -3.592,0.7943zM140.041,65.1156c0.992,0 1.862,-0.2227 2.61,-0.6667c0.748,-0.444 1.333,-1.0695 1.754,-1.8738c0.421,-0.8043 0.631,-1.7462 0.631,-2.8257c0,-1.0794 -0.212,-1.9873 -0.631,-2.783c-0.421,-0.7944 -1.01,-1.4199 -1.768,-1.8739c-0.758,-0.4539 -1.632,-0.6808 -2.624,-0.6808c-0.991,0 -1.907,0.2269 -2.693,0.6808c-0.786,0.454 -1.403,1.0795 -1.852,1.8739c-0.449,0.7943 -0.673,1.7135 -0.673,2.7547c0,1.0411 0.224,1.9688 0.673,2.783c0.449,0.8143 1.071,1.4526 1.866,1.9164c0.794,0.4639 1.697,0.6951 2.707,0.6951z" fill="white"/>
<path id="Vector_17" d="M149.441,66.5355v-13.2033h1.431v13.2033zM150.872,58.67l-0.702,-0.2837c0,-1.6852 0.421,-2.9959 1.263,-3.9321c0.842,-0.9376 1.945,-1.4057 3.31,-1.4057c0.637,0 1.23,0.1135 1.782,0.3404c0.551,0.227 1.061,0.5958 1.529,1.1079l-0.954,1.0227c-0.355,-0.3972 -0.74,-0.6809 -1.151,-0.8525c-0.411,-0.1702 -0.898,-0.2553 -1.459,-0.2553c-1.066,0 -1.936,0.3645 -2.61,1.0936c-0.672,0.7291 -1.009,1.7845 -1.009,3.1661z" fill="white"/>
<path id="Vector_18" d="M164.676,66.8203c-1.253,0 -2.39,-0.3078 -3.408,-0.9235c-1.02,-0.6142 -1.828,-1.4482 -2.427,-2.4979c-0.599,-1.0511 -0.898,-2.2185 -0.898,-3.5065c0,-1.288 0.299,-2.4455 0.898,-3.4781c0.599,-1.0313 1.407,-1.8497 2.427,-2.4554c1.019,-0.6057 2.155,-0.9093 3.408,-0.9093c1.253,0 2.417,0.3036 3.438,0.9093c1.019,0.6057 1.828,1.4241 2.426,2.4554c0.599,1.0326 0.898,2.1915 0.898,3.4781c0,1.2866 -0.299,2.4795 -0.898,3.5207c-0.598,1.0411 -1.407,1.8695 -2.426,2.4837c-1.02,0.6157 -2.165,0.9235 -3.438,0.9235zM164.676,65.4571c1.01,0 1.912,-0.2454 2.708,-0.7376c0.794,-0.4922 1.42,-1.1589 1.879,-2.0015c0.459,-0.8426 0.687,-1.793 0.687,-2.854c0,-1.061 -0.229,-1.9688 -0.687,-2.7831c-0.459,-0.8142 -1.085,-1.4624 -1.879,-1.9447c-0.796,-0.4823 -1.698,-0.7234 -2.708,-0.7234c-1.01,0 -1.885,0.2411 -2.68,0.7234c-0.796,0.4823 -1.426,1.132 -1.893,1.9447c-0.468,0.8143 -0.703,1.7519 -0.703,2.8115c0,1.0596 0.234,2.0071 0.703,2.8398c0.467,0.8327 1.097,1.4951 1.893,1.9873c0.795,0.4922 1.688,0.7376 2.68,0.7376z" fill="white"/>
<path id="Vector_19" d="M178.761,66.7909c-1.047,0 -1.983,-0.2412 -2.805,-0.7234c-0.824,-0.4823 -1.465,-1.1589 -1.922,-2.0299c-0.459,-0.8709 -0.687,-1.8738 -0.687,-3.01v-7.6953h1.431v7.6371c0,0.8908 0.164,1.671 0.491,2.3419c0.327,0.6724 0.79,1.1972 1.389,1.576c0.598,0.3787 1.29,0.5674 2.076,0.5674c1.216,0 2.184,-0.4114 2.904,-1.2355c0.72,-0.8228 1.08,-1.9065 1.08,-3.2512v-7.6371h1.43v7.6953c0,1.1362 -0.229,2.139 -0.688,3.01c-0.458,0.8709 -1.093,1.5476 -1.907,2.0298c-0.814,0.4823 -1.744,0.7235 -2.792,0.7235z" fill="white"/>
<path id="Vector_20" d="M186.925,72.13v-18.7964h1.43v3.2937l-0.337,3.2086l0.337,3.237v9.0571zM193.547,66.8206c-0.974,0 -1.866,-0.1986 -2.68,-0.5958c-0.814,-0.3972 -1.492,-0.9504 -2.033,-1.661c-0.543,-0.7093 -0.898,-1.5377 -1.066,-2.4838v-4.3165c0.168,-0.966 0.529,-1.8029 1.08,-2.5121c0.551,-0.7107 1.235,-1.254 2.047,-1.6327c0.814,-0.3787 1.698,-0.5674 2.652,-0.5674c1.235,0 2.338,0.3036 3.31,0.9093c0.972,0.6057 1.74,1.4298 2.301,2.4696c0.561,1.0411 0.842,2.2142 0.842,3.5206c0,1.3065 -0.281,2.4753 -0.842,3.5065c-0.561,1.0313 -1.329,1.8512 -2.301,2.4554c-0.973,0.6057 -2.077,0.9093 -3.31,0.9093zM193.294,65.4574c1.028,0 1.935,-0.2369 2.721,-0.7092c0.786,-0.4724 1.399,-1.1263 1.838,-1.959c0.439,-0.8326 0.659,-1.7887 0.659,-2.8682c0,-1.0794 -0.22,-2.0298 -0.659,-2.8539c-0.439,-0.8242 -1.047,-1.471 -1.824,-1.9448c-0.776,-0.4723 -1.67,-0.7092 -2.679,-0.7092c-1.01,0 -1.866,0.2369 -2.624,0.7092c-0.758,0.4738 -1.351,1.122 -1.782,1.9448c-0.431,0.8227 -0.645,1.7844 -0.645,2.8823c0,1.0979 0.212,2.0299 0.631,2.854c0.421,0.8242 1.01,1.4724 1.768,1.9448c0.758,0.4737 1.622,0.7092 2.596,0.7092z" fill="white"/>
</g>
</g></svg>
